<svg xmlns="http://www.w3.org/2000/svg" version="1.1" xmlns:xlink="http://www.w3.org/1999/xlink" xmlns:svgjs="http://svgjs.dev/svgjs" width="1440" height="560" preserveAspectRatio="none" viewBox="0 0 1440 560">
    <g mask="url(&quot;#SvgjsMask1011&quot;)" fill="none">
        <rect width="1440" height="560" x="0" y="0" fill="rgba(255, 255, 255, 1)"></rect>
        <path d="M 0,233 C 57.6,188.8 172.8,27 288,12 C 403.2,-3 460.8,154.4 576,158 C 691.2,161.6 748.8,30.4 864,30 C 979.2,29.6 1036.8,141.4 1152,156 C 1267.2,170.6 1382.4,113.6 1440,103L1440 560L0 560z" fill="rgba(255, 255, 255, 1)"></path>
        <path d="M 0,512 C 96,488 288,405.4 480,392 C 672,378.6 768,449.8 960,445 C 1152,440.2 1344,383.4 1440,368L1440 560L0 560z" fill="rgba(187, 254, 255, 1)"></path>
    </g>
    <defs>
        <mask id="SvgjsMask1011">
            <rect width="1440" height="560" fill="#ffffff"></rect>
        </mask>
    </defs>
</svg>
